<?xml version="1.0" encoding="UTF-8"?>
<svg id="Layer_1" data-name="Layer 1" xmlns="http://www.w3.org/2000/svg" viewBox="0 0 40 40">
  <defs>
    <style>
      .cls-1 {
        fill: #fff;
      }
    </style>
  </defs>
  <path class="cls-1" d="m33.88,7.85c-2.59-1.21-5.36-2.09-8.25-2.59-.36.64-.77,1.51-1.06,2.19-3.08-.46-6.13-.46-9.15,0-.29-.69-.71-1.55-1.07-2.19-2.9.5-5.67,1.39-8.26,2.6C.88,15.75-.54,23.45.17,31.03c3.46,2.59,6.82,2.68,10.12,3.7.81-1.12,1.54-.83,2.17-2.09-1.19-.45-2.33-1.01-3.41-1.66.29-.21.57-.43.84-.66,6.58,3.08,13.73,3.08,20.24,0,.27.23.55.45.84.66-1.08.65-2.23,1.21-3.42,1.66.63,1.25,1.35.97,2.17,2.09,3.3-1.03,6.66-1.12,10.13-3.71.83-8.79-1.42-16.42-5.95-23.18ZM13.36,26.37c-1.98,0-3.6-1.84-3.6-4.09s1.59-4.09,3.6-4.09c2.01,0,3.63,1.84,3.6,4.09,0,2.25-1.59,4.09-3.6,4.09Zm13.29,0c-1.98,0-3.6-1.84-3.6-4.09s1.59-4.09,3.6-4.09,3.63,1.84,3.6,4.09c0,2.25-1.59,4.09-3.6,4.09Z"/>
</svg>