<?xml version="1.0" encoding="UTF-8"?>
<svg id="Mobile_Scroll" xmlns="http://www.w3.org/2000/svg" viewBox="0 0 64 64">
  <defs>
    <style>
      .cls-1 {
        fill: #fff;
      }
    </style>
  </defs>
  <path class="cls-1" d="m32,58.9c-2.9,0-5.79-1.1-8-3.31L1.68,33.28c-2.24-2.24-2.24-5.88,0-8.12,2.24-2.24,5.88-2.24,8.12,0l22.2,22.2,22.2-22.2c2.24-2.24,5.88-2.24,8.12,0s2.24,5.88,0,8.12l-22.32,22.32c-2.21,2.2-5.1,3.31-8,3.31Z"/>
  <path class="cls-1" d="m32,28.45c-1.91,0-3.82-.73-5.27-2.18l-14.71-14.71c-1.48-1.48-1.48-3.87,0-5.35,1.48-1.48,3.87-1.48,5.35,0l14.63,14.63,14.63-14.63c1.48-1.48,3.88-1.48,5.35,0s1.48,3.87,0,5.35l-14.71,14.71c-1.45,1.45-3.36,2.18-5.27,2.18Z"/>
</svg>