<?xml version="1.0" encoding="UTF-8"?>
<svg id="Layer_1" data-name="Layer 1" xmlns="http://www.w3.org/2000/svg" viewBox="0 0 40 40">
  <defs>
    <style>
      .cls-1 {
        fill: #fff;
      }
    </style>
  </defs>
  <path class="cls-1" d="m12.58,36.25C7.95,36.25,3.63,34.9,0,32.56c4.34.53,8.71-.69,12.15-3.39-3.51-.06-6.59-2.36-7.66-5.7.5.1,1.02.15,1.54.15.75,0,1.48-.1,2.17-.28-3.83-.78-6.58-4.14-6.59-8.05v-.11c1.14.63,2.41.99,3.71,1.03-2.28-1.52-3.66-4.09-3.65-6.83,0-1.5.41-2.91,1.11-4.12,4.17,5.13,10.32,8.24,16.91,8.57-1.03-4.42,1.72-8.83,6.14-9.86,2.85-.66,5.84.24,7.84,2.38,1.84-.36,3.6-1.04,5.21-1.99-.61,1.9-1.89,3.51-3.61,4.54,1.63-.19,3.21-.63,4.71-1.29-1.1,1.65-2.49,3.08-4.09,4.25.01.35.03.71.03,1.06,0,10.84-8.26,23.35-23.35,23.35"/>
</svg>