<?xml version="1.0" encoding="UTF-8"?>
<svg id="Layer_1" data-name="Layer 1" xmlns="http://www.w3.org/2000/svg" viewBox="0 0 40 40">
  <defs>
    <style>
      .cls-1 {
        fill: #fff;
      }
    </style>
  </defs>
  <path class="cls-1" d="m16.2,21.94c-1.2,0-2.15,1.03-1.92,2.21.68,3.54,2.19,6.78,4.31,9.52.72.93,2.09.93,2.81,0,2.13-2.74,3.64-5.98,4.31-9.52.23-1.18-.72-2.21-1.92-2.21h-7.6Z"/>
  <path class="cls-1" d="m32.02,21.94c-1.07,0-1.95.82-2.1,1.88-.71,4.79-2.7,9.16-5.61,12.75-.63.78-.54,1.93.25,2.55h0c.42.32.96.44,1.47.28,7-2.16,12.39-7.99,13.93-15.23.25-1.18-.7-2.23-1.91-2.23h-6.04Z"/>
  <path class="cls-1" d="m1.95,21.94c-1.21,0-2.16,1.05-1.91,2.23,1.6,7.51,7.32,13.49,14.69,15.45.5.13,1.03-.03,1.39-.4h0c.56-.57.56-1.48.04-2.09-3.16-3.7-5.32-8.27-6.07-13.31-.16-1.06-1.03-1.88-2.1-1.88H1.95Z"/>
  <path class="cls-1" d="m39.96,15.64c.25,1.18-.7,2.23-1.91,2.23h-6.04c-1.07,0-1.95-.82-2.1-1.88-.71-4.79-2.7-9.16-5.61-12.75-.63-.78-.54-1.93.25-2.54h0c.42-.32.96-.44,1.47-.28,7,2.16,12.39,7.99,13.93,15.23Z"/>
  <path class="cls-1" d="m25.72,15.65c.23,1.18-.72,2.21-1.92,2.21h-7.6c-1.2,0-2.15-1.03-1.92-2.21.68-3.54,2.19-6.78,4.31-9.52.72-.93,2.09-.93,2.81,0,2.13,2.74,3.64,5.98,4.31,9.52Z"/>
  <path class="cls-1" d="m13.97.4c.51-.16,1.05-.04,1.47.28h0c.79.61.88,1.77.25,2.54-2.91,3.59-4.89,7.96-5.6,12.75-.16,1.06-1.03,1.88-2.1,1.88H1.95c-1.21,0-2.16-1.05-1.91-2.23C1.58,8.39,6.97,2.57,13.97.4Z"/>
</svg>