<?xml version="1.0" encoding="UTF-8"?>
<svg id="Layer_1" data-name="Layer 1" xmlns="http://www.w3.org/2000/svg" viewBox="0 0 128 128">
  <defs>
    <style>
      .cls-1 {
        fill: #fff;
      }
    </style>
  </defs>
  <path class="cls-1" d="m126,53.05c-.5-2.9-3.64-4.5-6.28-3.2l-19.19,9.46c-2.35,1.16-3.88,3.5-3.99,6.12-.52,12.03-7.51,23.41-19.21,28.96-16.67,7.9-36.44.98-44.56-15.58-8.16-16.64-1.32-36.75,15.31-44.95,11.41-5.63,24.45-4.19,34.18,2.63,2.14,1.5,4.93,1.71,7.28.55l19.19-9.47c2.62-1.29,3.29-4.75,1.31-6.9C91.24.22,60.5-6.29,34.36,6.75c-4.69,2.34-8.98,5.19-12.81,8.44-1.09.93-1.14,2.59-.12,3.6,2.01,1.99,3.42,4.62,3.87,7.63.63,4.24-.77,8.31-3.48,11.22-.81.88-.89,2.22-.16,3.17,1.38,1.77,2.33,3.91,2.69,6.29,1.01,6.74-3.14,13.06-9.48,14.97-1.06.32-1.77,1.29-1.75,2.39.11,6.58-4.21,12.19-9.99,13.1,0,0,0,0-.01,0-1.43.23-2.35,1.65-1.97,3.05,1.12,4.15,2.67,8.26,4.68,12.24,15.8,31.3,53.91,44.08,85.42,28.54,26.06-12.86,39.5-41.09,34.75-68.34Z"/>
  <path class="cls-1" d="m86.77,65.33c1.21-1.02,3.04.03,2.78,1.58-2.14,12.69-13.18,22.36-26.48,22.36-14.07,0-25.61-10.82-26.76-24.59-.11-1.28.86-2.27,2.14-2.19,20.06,1.2,30.38,17.92,48.31,2.84Z"/>
  <circle class="cls-1" cx="69.96" cy="63.21" r="3.05"/>
  <circle class="cls-1" cx="59.29" cy="57.11" r="4.25"/>
  <circle class="cls-1" cx="71.92" cy="46.93" r="7.35"/>
</svg>