<?xml version="1.0" encoding="UTF-8"?>
<svg id="Layer_1" data-name="Layer 1" xmlns="http://www.w3.org/2000/svg" viewBox="0 0 128 128">
  <defs>
    <style>
      .cls-1 {
        fill: #fff;
      }
    </style>
  </defs>
  <path class="cls-1" d="m124.18,30.44h-7.06c-2.36,0-4.27-1.91-4.27-4.27v-7.06c0-2.11-1.71-3.82-3.82-3.82h-7.06c-2.36,0-4.27-1.91-4.27-4.27V3.97c0-2.11-1.71-3.82-3.82-3.82h-59.8c-2.11,0-3.81,1.71-3.81,3.82v7.06c0,2.36-1.91,4.27-4.27,4.27h-7.06c-2.11,0-3.82,1.71-3.82,3.82v7.06c0,2.36-1.91,4.27-4.27,4.27H3.82C1.71,30.44,0,32.14,0,34.25v59.8C0,96.16,1.71,97.87,3.82,97.87h7.06c2.36,0,4.27,1.91,4.27,4.27v7.06c0,2.11,1.71,3.82,3.82,3.82h7.06c2.36,0,4.27,1.91,4.27,4.27v7.06c0,2.11,1.71,3.82,3.82,3.82h59.8c2.11,0,3.81-1.71,3.81-3.82v-7.06c0-2.36,1.91-4.27,4.27-4.27h7.06c2.11,0,3.82-1.71,3.82-3.82v-7.06c0-2.36,1.91-4.27,4.27-4.27h7.06c2.11,0,3.82-1.71,3.82-3.82v-59.8c0-2.11-1.71-3.81-3.82-3.81ZM41.89,105.67c-2.36,0-4.27-1.91-4.27-4.27v-7.06c0-2.11-1.71-3.82-3.82-3.82h-7.06c-2.36,0-4.27-1.91-4.27-4.27v-44.22c0-2.36,1.91-4.27,4.27-4.27h7.06c2.11,0,3.82-1.71,3.82-3.82v-7.06c0-2.36,1.91-4.27,4.27-4.27h44.22c2.36,0,4.27,1.91,4.27,4.27v7.06c0,2.11,1.71,3.82,3.82,3.82h7.06c2.34,0,4.24,1.88,4.27,4.22v44.27c0,2.36-1.91,4.27-4.27,4.27h-7.06c-2.11,0-3.82,1.71-3.82,3.82v7.06c0,2.36-1.91,4.27-4.27,4.27h-44.22Z"/>
  <g>
    <rect class="cls-1" x="41.9" y="43.46" width="22.48" height="22.48" rx="3.77" ry="3.77"/>
    <rect class="cls-1" x="70.99" y="57.45" width="15.1" height="15.1" rx="2.53" ry="2.53"/>
    <rect class="cls-1" x="52.09" y="72.55" width="12.29" height="12.29" rx="2.06" ry="2.06"/>
  </g>
</svg>